#!OML:ASF F:\VICON\USERDATA\INSTALL\rory3\rory3.ASF
:FULLY-SPECIFIED
:DEGREES
433
root 0.634099 18.1679 42.0669 -8.07801 -1.53039 6.47582
lowerback 17.4408 -0.692817 -6.59679
upperback 0.821993 -2.12726 1.06839
thorax -8.62882 -0.736416 5.43694
lowerneck -11.0609 0.357238 -2.13432
upperneck 31.608 1.76844 -2.4721
head 12.2583 0.206843 -0.328155
rclavicle -9.39258e-015 -1.27222e-014
rhumerus -36.6613 -12.8107 -75.717
rradius 29.7754
rwrist 3.09305
rhand -12.8415 8.00228
rfingers 7.12502
rthumb 13.246 -21.5568
lclavicle -9.39258e-015 -1.27222e-014
lhumerus -38.2705 3.45 84.0385
lradius 40.0099
lwrist 6.64379
lhand -11.752 51.8967
lfingers 7.12502
lthumb 14.296 81.3846
rfemur -23.2457 -4.80018 14.8111
rtibia 66.3856
rfoot -9.23574 -10.5499
rtoes 8.63441
lfemur -2.43941 -3.72263 -31.7752
ltibia 24.1433
lfoot -10.255 -0.352695
ltoes -11.4474
434
root 0.589511 18.1628 42.2233 -8.21496 -2.26897 5.23134
lowerback 17.3626 -0.605401 -5.96453
upperback 0.891766 -1.83913 1.5167
thorax -8.55203 -0.618907 5.4935
lowerneck -11.0316 0.416122 -2.01147
upperneck 31.6521 1.77456 -2.32571
head 12.2679 0.241217 -0.293766
rclavicle 2.60656e-014 -1.19271e-014
rhumerus -36.7686 -12.7801 -75.8869
rradius 29.7687
rwrist 3.12293
rhand -12.6785 8.08681
rfingers 7.12502
rthumb 13.4031 -21.462
lclavicle 2.60656e-014 -1.19271e-014
lhumerus -38.2873 3.17879 83.9032
lradius 40.48
lwrist 6.64596
lhand -11.6937 51.7864
lfingers 7.12502
lthumb 14.3521 81.2703
rfemur -23.5183 -3.66844 16.7629
rtibia 64.5219
rfoot -10.0357 -11.1757
rtoes 7.39664
lfemur -2.12506 -3.69585 -30.2777
ltibia 24.7683
lfoot -10.828 0.260519
ltoes -10.801
435
root 0.585715 18.1276 42.3387 -8.0701 -2.26495 5.04339
lowerback 16.4677 -0.6782 -5.65058
upperback 1.43618 -1.81454 1.46995
thorax -7.4742 -0.677682 5.20512
lowerneck -11.5656 0.375079 -1.7132
upperneck 31.2167 1.6648 -2.37813
head 12.2035 0.224467 -0.376429
rclavicle 1.59525e-014 5.56597e-015
rhumerus -35.9089 -13.4084 -76.2147
rradius 29.7484
rwrist 3.36384
rhand -12.4699 8.01959
rfingers 7.12502
rthumb 13.6042 -21.5159
lclavicle 1.59525e-014 5.56597e-015
lhumerus -37.1232 2.65935 83.8657
lradius 40.7632
lwrist 6.90233
lhand -12.0066 51.652
lfingers 7.12502
lthumb 14.0506 81.157
rfemur -24.1893 -3.6321 17.0545
rtibia 62.7396
rfoot -10.8932 -10.932
rtoes 6.21533
lfemur -1.66597 -3.55191 -30.1647
ltibia 25.2771
lfoot -11.1163 0.666208
ltoes -10.5076
436
root 0.578573 18.115 42.4441 -7.89493 -2.32145 4.72953
lowerback 17.5887 -0.66488 -5.18943
upperback 0.379667 -1.78635 1.52265
thorax -9.27235 -0.584187 5.06718
lowerneck -9.46562 0.195758 -2.17863
upperneck 31.0166 1.30106 -1.96782
head 11.6791 0.0758635 -0.191559
rclavicle 1.09332e-015 2.94201e-014
rhumerus -37.9193 -12.9253 -75.891
rradius 30.2235
rwrist 3.20328
rhand -12.4508 7.92109
rfingers 7.12502
rthumb 13.6225 -21.6132
lclavicle 1.09332e-015 2.94201e-014
lhumerus -38.7163 1.91617 83.9347
lradius 41.4102
lwrist 7.1785
lhand -12.2395 51.7126
lfingers 7.12502
lthumb 13.8262 81.2331
rfemur -24.7576 -3.38546 17.5376
rtibia 60.6188
rfoot -11.4585 -11.0624
rtoes 5.57535
lfemur -1.59562 -3.61304 -29.8639
ltibia 25.832
lfoot -11.9049 0.997121
ltoes -12.8033
437
root 0.546805 18.1202 42.5676 -7.90039 -2.89964 3.60586
lowerback 17.065 -0.605526 -4.4581
upperback 1.12212 -1.48726 1.96709
thorax -8.20601 -0.516818 5.02118
lowerneck -10.9086 0.343099 -1.67498
upperneck 30.838 1.57644 -2.38387
head 11.9132 0.200038 -0.395603
rclavicle -3.21037e-014 -1.51076e-014
rhumerus -36.6367 -13.1645 -76.266
rradius 30.2174
rwrist 3.29309
rhand -12.5223 8.04185
rfingers 7.12502
rthumb 13.5537 -21.497
lclavicle -3.21037e-014 -1.51076e-014
lhumerus -37.1658 1.93028 83.9918
lradius 41.6982
lwrist 7.18161
lhand -12.3533 51.8481
lfingers 7.12502
lthumb 13.7166 81.376
rfemur -24.9611 -2.36885 19.1209
rtibia 58.3055
rfoot -11.97 -11.8447
rtoes 5.6586
lfemur -1.16407 -3.62648 -28.5429
ltibia 25.9013
lfoot -12.4276 1.43813
ltoes -14.7496
438
root 0.538801 18.1183 42.7292 -8.12656 -2.91076 4.18693
lowerback 16.9904 -0.540312 -4.99453
upperback 1.08495 -1.51351 1.82564
thorax -8.19256 -0.512189 5.17898
lowerneck -10.3717 0.320191 -1.56782
upperneck 30.7851 1.57141 -2.62348
head 11.7846 0.185312 -0.504885
rclavicle 1.4884e-014 -1.59028e-015
rhumerus -37.1278 -12.8807 -76.2894
rradius 30.4906
rwrist 3.15488
rhand -12.5985 8.14329
rfingers 7.12502
rthumb 13.4802 -21.4005
lclavicle 1.4884e-014 -1.59028e-015
lhumerus -37.2683 1.72617 84.0285
lradius 42.0969
lwrist 7.19328
lhand -12.4108 51.8252
lfingers 7.12502
lthumb 13.6611 81.3568
rfemur -24.7515 -2.32327 18.3898
rtibia 56.0191
rfoot -12.8067 -11.9348
rtoes 5.42342
lfemur -0.135876 -3.39375 -29.2803
ltibia 25.6365
lfoot -12.932 1.62389
ltoes -16.5175
439
root 0.530252 18.1186 42.8549 -7.96274 -2.77142 4.92106
lowerback 17.8596 -0.500704 -5.74012
upperback 0.17202 -1.68722 1.66619
thorax -9.64888 -0.486915 5.53449
lowerneck -8.66554 0.184626 -2.13618
upperneck 30.8472 1.33746 -2.2999
head 11.4527 0.0643867 -0.317746
rclavicle 1.83255e-014 -1.43125e-014
rhumerus -38.7609 -12.1369 -76.0719
rradius 30.715
rwrist 2.98737
rhand -12.665 8.37852
rfingers 7.12502
rthumb 13.4161 -21.1695
lclavicle 1.83255e-014 -1.43125e-014
lhumerus -38.5103 1.41919 84.042
lradius 42.5227
lwrist 7.3819
lhand -12.482 51.7015
lfingers 7.12502
lthumb 13.5925 81.2378
rfemur -25.0791 -2.33965 17.529
rtibia 53.5935
rfoot -13.3466 -11.7842
rtoes 4.56538
lfemur 0.183241 -3.46626 -30.1249
ltibia 25.2225
lfoot -13.0696 1.58215
ltoes -15.5014
440
root 0.526407 18.1315 42.9737 -7.67331 -2.47976 5.81818
lowerback 17.3529 -0.527934 -6.51735
upperback 0.355418 -1.87555 1.35523
thorax -9.12274 -0.577601 5.65712
lowerneck -9.57665 0.278917 -1.65985
upperneck 30.9882 1.43879 -2.40067
head 11.6972 0.14397 -0.425498
rclavicle -1.09829e-014 5.56597e-015
rhumerus -38.2173 -12.3132 -76.3373
rradius 30.4686
rwrist 2.97816
rhand -12.7035 8.55281
rfingers 7.12502
rthumb 13.379 -20.9976
lclavicle -1.09829e-014 5.56597e-015
lhumerus -37.6704 1.07075 83.9405
lradius 42.6766
lwrist 7.50545
lhand -12.2695 51.8911
lfingers 7.12502
lthumb 13.7973 81.4136
rfemur -25.439 -2.54132 16.4277
rtibia 51.0984
rfoot -13.9245 -11.1298
rtoes 5.8193
lfemur 0.258075 -3.77572 -31.1171
ltibia 24.3828
lfoot -12.8366 1.02786
ltoes -9.97387
441
root 0.505365 18.1491 43.1078 -7.58064 -2.75611 5.59813
lowerback 16.9396 -0.530579 -6.4707
upperback 0.666758 -1.82521 1.43995
thorax -8.55313 -0.588014 5.68558
lowerneck -10.4512 0.388544 -1.34305
upperneck 31.186 1.59693 -2.52814
head 11.9609 0.2259 -0.50854
rclavicle -1.80397e-014 1.19271e-014
rhumerus -37.5624 -12.3773 -76.6711
rradius 30.4512
rwrist 3.01913
rhand -12.5774 8.42875
rfingers 7.12502
rthumb 13.5005 -21.1137
lclavicle -1.80397e-014 1.19271e-014
lhumerus -36.874 1.03621 83.799
lradius 42.9868
lwrist 7.61266
lhand -12.3371 52.294
lfingers 7.12502
lthumb 13.7321 81.8209
rfemur -25.427 -1.82636 16.7076
rtibia 48.3984
rfoot -14.1864 -11.6176
rtoes 7.7116
lfemur 1.04521 -3.71413 -30.8368
ltibia 23.5473
lfoot -12.8308 1.03013
ltoes -9.00671
442
root 0.500671 18.1639 43.2393 -7.39262 -2.71515 5.69314
lowerback 17.8506 -0.629667 -6.51405
upperback -0.0518723 -2.0496 1.41925
thorax -9.82868 -0.615003 5.80269
lowerneck -10.1753 0.441826 -1.59218
upperneck 31.7406 1.61855 -2.16094
head 12.122 0.243569 -0.328783
rclavicle 5.26779e-015 -1.59028e-015
rhumerus -38.7311 -11.7479 -76.6752
rradius 30.9266
rwrist 2.91057
rhand -12.2116 8.5008
rfingers 7.12502
rthumb 13.8531 -21.0179
lclavicle 5.26779e-015 -1.59028e-015
lhumerus -37.7157 1.1262 83.6341
lradius 43.3755
lwrist 7.70525
lhand -12.7637 51.946
lfingers 7.12502
lthumb 13.3209 81.5003
rfemur -25.3778 -1.59779 16.4461
rtibia 45.5006
rfoot -13.9871 -12.7041
rtoes 8.01237
lfemur 1.82278 -3.87416 -31.0029
ltibia 22.6162
lfoot -12.6993 0.970463
ltoes -9.66572
443
root 0.486128 18.1622 43.3728 -7.25739 -2.86604 5.70395
lowerback 17.0795 -0.661236 -6.54381
upperback 0.517355 -2.03063 1.3926
thorax -8.76575 -0.671057 5.73347
lowerneck -10.7337 0.399478 -1.53574
upperneck 31.0885 1.53868 -2.14171
head 11.9739 0.222952 -0.336755
rclavicle -2.95692e-015 3.18055e-015
rhumerus -37.6745 -11.9538 -77.0895
rradius 30.6826
rwrist 3.10113
rhand -12.3807 8.94818
rfingers 7.12502
rthumb 13.6901 -20.5815
lclavicle -2.95692e-015 3.18055e-015
lhumerus -36.4063 1.22505 83.4412
lradius 43.4898
lwrist 7.8288
lhand -13.2712 51.3875
lfingers 7.12502
lthumb 12.8317 80.9731
rfemur -25.2928 -0.957828 16.367
rtibia 42.5839
rfoot -13.658 -13.8361
rtoes 8.10289
lfemur 2.88785 -3.78165 -31.048
ltibia 21.6566
lfoot -12.8312 1.2952
ltoes -15.4755
444
root 0.467169 18.2008 43.5275 -7.39092 -3.10906 5.75368
lowerback 16.5022 -0.646455 -6.65284
upperback 1.01718 -1.98252 1.33641
thorax -7.90001 -0.698598 5.68368
lowerneck -11.2899 0.394759 -1.25452
upperneck 30.942 1.5549 -2.39482
head 12.0351 0.228933 -0.476876
rclavicle 6.75868e-015 2.3059e-014
rhumerus -36.7487 -12.2205 -77.4731
rradius 30.1853
rwrist 3.42581
rhand -12.6375 8.94881
rfingers 7.12502
rthumb 13.4426 -20.5974
lclavicle 6.75868e-015 2.3059e-014
lhumerus -35.6013 1.28717 83.2029
lradius 43.8883
lwrist 7.97109
lhand -13.358 51.4042
lfingers 7.12502
lthumb 12.7481 80.995
rfemur -24.6607 -0.171866 16.2282
rtibia 39.4918
rfoot -13.5964 -14.4657
rtoes 8.74714
lfemur 3.9661 -3.80374 -31.1301
ltibia 20.6091
lfoot -12.6607 1.32539
ltoes -10.1379
